<mxfile host="65bd71144e">
    <diagram id="EJEb2KvEvNaRJqG6hRDh" name="Page-1">
        <mxGraphModel dx="1080" dy="325" grid="1" gridSize="10" guides="1" tooltips="1" connect="1" arrows="1" fold="1" page="1" pageScale="1" pageWidth="850" pageHeight="1100" math="0" shadow="0">
            <root>
                <mxCell id="0"/>
                <mxCell id="1" parent="0"/>
                <mxCell id="2" value="http://ics2o.mths.ca" style="swimlane;whiteSpace=wrap;html=1;" vertex="1" parent="1">
                    <mxGeometry x="60" y="60" width="760" height="480" as="geometry"/>
                </mxCell>
                <mxCell id="3" value="" style="rounded=0;whiteSpace=wrap;html=1;fillColor=#f9f7ed;strokeColor=#36393d;fontSize=9;" vertex="1" parent="2">
                    <mxGeometry y="120" width="760" height="360" as="geometry"/>
                </mxCell>
                <mxCell id="4" value="Iterations." style="text;html=1;strokeColor=none;fillColor=none;align=center;verticalAlign=middle;whiteSpace=wrap;rounded=0;fontColor=#0D0D0D;" vertex="1" parent="2">
                    <mxGeometry x="-10" y="178" width="150" height="30" as="geometry"/>
                </mxCell>
                <mxCell id="6" value="" style="whiteSpace=wrap;html=1;fillColor=#e3c800;fontColor=#000000;strokeColor=#B09500;" vertex="1" parent="2">
                    <mxGeometry y="17" width="760" height="110" as="geometry"/>
                </mxCell>
                <mxCell id="7" value="&lt;font color=&quot;#000000&quot; style=&quot;font-size: 9px;&quot;&gt;ENTER&lt;/font&gt;" style="rounded=1;whiteSpace=wrap;html=1;fillColor=#ffff88;strokeColor=none;fontSize=9;" vertex="1" parent="2">
                    <mxGeometry x="38" y="260" width="70" height="30" as="geometry"/>
                </mxCell>
                <mxCell id="10" value="Please enter the following:" style="text;html=1;strokeColor=none;fillColor=none;align=center;verticalAlign=middle;whiteSpace=wrap;rounded=0;fontColor=#0D0D0D;" vertex="1" parent="2">
                    <mxGeometry x="-47" y="148" width="316" height="30" as="geometry"/>
                </mxCell>
                <mxCell id="11" value="enter..." style="text;html=1;strokeColor=none;fillColor=none;align=center;verticalAlign=middle;whiteSpace=wrap;rounded=0;fontColor=#BDBBB9;" vertex="1" parent="2">
                    <mxGeometry x="28" y="208" width="62" height="30" as="geometry"/>
                </mxCell>
                <mxCell id="12" value="" style="endArrow=none;html=1;fontColor=#0D0D0D;jumpSize=5;fillColor=#eeeeee;strokeColor=#36393d;" edge="1" parent="2">
                    <mxGeometry width="50" height="50" relative="1" as="geometry">
                        <mxPoint x="39" y="238.5" as="sourcePoint"/>
                        <mxPoint x="282" y="238.5" as="targetPoint"/>
                    </mxGeometry>
                </mxCell>
                <mxCell id="16" value="" style="shape=image;verticalLabelPosition=bottom;labelBackgroundColor=default;verticalAlign=top;aspect=fixed;imageAspect=0;image=data:image/png,iVBORw0KGgoAAAANSUhEUgAAANsAAACiCAMAAAD/cEh7AAAAdVBMVEX///+ampo8PDxISEiOjo5+fn5jY2Nzc3MAAABYWFi+vr43Nzc/Pz8JCQlmZmaoqKjl5eXPz88bGxtQUFApKSns7Oz5+fne3t6vr68yMjKIiIjx8fHDw8MVFRXY2Nj09PSXl5e0tLR1dXUjIyMZGRlVVVWEhIQjEmc2AAAD2klEQVR4nO2d63KqMBCAwyUQIlEQUVBA1KPv/4gHYnESL6fTadOYPfv9AJvamf3GNEJ2EwhBEARB3pfmlNkOwQxZWv9hQN0GIraxHYIx0M1N0M1N0M1N0M1NCtbYDsEMaz8d8WzHgbwlcP+jm2RlOwRD9MtI3LsdrERihOW9m28lDCM8uM2shGEEdHOT/8QtpCNLeZyuhirfQeijW85HVvKYf7R1noPwR7crMPvkFShuJeei5XyntkFxa4LoGCdBrrZBcXsGZLfOdgCIYwC+Sy5S2yEY4nKaC0B3jvegm5ugm5ugm5uAdgN8lQ7WLeOVWFZ8bzsOE+Rydo3CLfH6fdb0JOrKdhRmSLZlN2N6ahpI39mwBSGlEKXSls+thfOjcMaGY8DUXgnFbX0cu+N5/PRuQHGT7FuhTtCCcutZr/4Iya1hyfRSZnm8Qp6m0fIQvhHlC4cX7Fa3f7ZMXj7Ma3maShq2wRvxtZnAMmgIqdTaDDB9cu+PBXMJV5rAuM3btD4JrdoRitvw3T0i1DYobs+A7Fbyz9+D/IsSyN3GA+sDPUEt+Y3ShEF1I2SBbk6Cbm6Cbm6y0O/1QYFuLuLRggW0tx2GETw5I9PbDgM6ZdSKFOZd3a4+7JtayxmQ7oszhe+K1y4IydlJbesXr97tFpSNBYKCqR9VCMQto+McptC2JIHiJuFMq34B5ea3Wh03JLdQTIvRS5nliak8TXm7S2weUzcOzen2qV2LRYJCnqa59jgyT29IrR7GEQpxnCRdMfY97fsNilvWyoSItiYLipsnt35Ij2obFLdnQHbLcdXSF4A677Xj/YytbUdhhq4IwbqRsV4O3VwE3dwE3dwE3dwErNuO0iU7UpD7A+4uXnXwQpBu706ezpZnmDsL5OmGdK3Q5DiQ4SGp83GlQaK2nYHUEQZs+5DIKoC4ld56dNOWlUJxk1C92geS2+ZuFTcgt7WfTimDSmZCVrE8fYyWWfINbH+5RPT28rpDnb+Qpw+3kn4Dyz1g2w+HWm0B0yfjcDh02rZAUNyq6+oXbU0IFLf5NdmjpUCguD0DshvmehAEQRAEQd6TeA5kUvORkgF+UqPnbH3QJg4ioLuBNf6hjFmktUHpgvVlGChmTHtKD5SNKRnjhGxZrLa92LyRt8fnv3hX4mI/Jnu0CaMXbiELfiOiHybRdjp7ue1/4+BKre5uC1FIG4quVtMH8uzRL06THG/XVFvlkT3hyz/YOzNbRofRL7uoLZ/1SZ85UtK+GIfIShvdP3M7MzdWulYiTVN/qV0yQhlLxDUhotX/QHF7BmQ3R0YKBEEQl/gLPAc6C30IUf8AAAAASUVORK5CYII=;" vertex="1" parent="2">
                    <mxGeometry x="495.9" y="166" width="219" height="162" as="geometry"/>
                </mxCell>
                <mxCell id="14" value="&lt;h1&gt;&lt;font color=&quot;#0d0d0d&quot;&gt;&lt;span style=&quot;font-weight: 400;&quot;&gt;Approximating the Square Root of 2&lt;/span&gt;&lt;/font&gt;&lt;/h1&gt;" style="text;html=1;strokeColor=none;fillColor=none;align=center;verticalAlign=middle;whiteSpace=wrap;rounded=0;" vertex="1" parent="1">
                    <mxGeometry x="220" y="81" width="440" height="120" as="geometry"/>
                </mxCell>
            </root>
        </mxGraphModel>
    </diagram>
</mxfile>